#!OML:ASF X:\für Bonn\!DataBase\2005_08_12_Daniel\c3d\Daniel.ASF
:FULLY-SPECIFIED
:DEGREES
1
root 24.7516 16.0257 0.964837 -2.94493 87.4664 -366.552
lowerback 41.7423 -2.3461 3.45222
upperback 9.22213 -0.391327 -2.00817
thorax -9.68033 0.360909 -3.87306
lowerneck 3.37237 1.06099 -5.79313
upperneck 0.927294 1.24255 -1.73802
head -0.29432 0.635744 0.404059
rclavicle 7.85199e-015 1.78906e-015
rhumerus -51.6412 -45.8582 -52.8362
rradius 9.06266
rwrist 58.6018
rhand -12.728 10.2226
rfingers 7.12502
rthumb 13.3554 -19.3294
lclavicle 7.85199e-015 1.78906e-015
lhumerus -79.9951 57.0417 9.29133
lradius 10.9978
lwrist -98.9272
lhand -4.48104 -8.02463
lfingers 7.12502
lthumb 21.292 20.8258
rfemur -48.0826 1.23633 22.7094
rtibia 66.8264
rfoot -15.8718 -7.10496
rtoes -12.1928
lfemur -48.3799 -1.545 -19.0637
ltibia 70.9212
lfoot -19.9164 2.80927
ltoes -11.0923
2
root 24.8354 16.1891 0.979367 -4.21221 87.6803 -368.51
lowerback 41.1129 -2.40544 3.51401
upperback 9.46717 -0.448347 -1.96859
thorax -9.21535 0.348665 -3.83382
lowerneck 3.41078 1.06542 -5.82264
upperneck 1.11558 1.25247 -1.74243
head -0.243144 0.636549 0.40745
rclavicle -1.21259e-014 -3.27995e-015
rhumerus -66.8106 -51.2929 -33.8069
rradius 8.10809
rwrist 72.9153
rhand -13.5081 9.82249
rfingers 7.12502
rthumb 12.6034 -19.7773
lclavicle -1.21259e-014 -3.27995e-015
lhumerus -94.5451 55.7388 -8.57467
lradius 11.0086
lwrist -108.259
lhand -5.12255 -7.88598
lfingers 7.12502
lthumb 20.6757 21.0327
rfemur -47.6708 1.55037 22.6782
rtibia 65.494
rfoot -15.0528 -7.7077
rtoes -12.6037
lfemur -47.934 -1.87742 -18.9528
ltibia 69.4033
lfoot -18.6858 3.03499
ltoes -11.8962
3
root 24.9174 16.3501 0.995257 -5.99965 87.9119 -371
lowerback 40.4657 -2.45169 3.54583
upperback 9.67824 -0.503996 -1.89244
thorax -8.77997 0.333047 -3.74198
lowerneck 3.36635 1.07945 -5.85962
upperneck 1.48533 1.28901 -1.79108
head -0.122919 0.646114 0.398629
rclavicle 1.55052e-014 -6.4605e-016
rhumerus -84.6725 -52.9609 -11.6442
rradius 7.38089
rwrist 87.64
rhand -14.3304 8.95683
rfingers 7.12502
rthumb 11.8105 -20.6901
lclavicle 1.55052e-014 -6.4605e-016
lhumerus -106.601 52.3757 -24.212
lradius 11.1667
lwrist -117.269
lhand -6.01731 -7.65672
lfingers 7.12502
lthumb 19.8157 21.3531
rfemur -47.2242 1.80301 22.6464
rtibia 64.0446
rfoot -14.2194 -8.25221
rtoes -12.8303
lfemur -47.5444 -2.1167 -18.8371
ltibia 67.8792
lfoot -17.4425 3.13612
ltoes -12.4884
4
root 25.0006 16.4829 1.01035 -8.31324 88.152 -374.004
lowerback 39.7821 -2.50595 3.61977
upperback 9.88129 -0.561159 -1.84614
thorax -8.3409 0.316151 -3.7051
lowerneck 3.22194 1.06931 -5.88969
upperneck 1.98441 1.3059 -1.78075
head 0.0527223 0.641505 0.408163
rclavicle -1.49089e-015 -1.55549e-014
rhumerus -101.844 -50.7486 10.2537
rradius 7.16576
rwrist 102.753
rhand -14.5445 8.02162
rfingers 7.12502
rthumb 11.604 -21.6371
lclavicle -1.49089e-015 -1.55549e-014
lhumerus -112.402 48.7034 -32.8433
lradius 11.4358
lwrist -123.101
lhand -6.81886 -7.29292
lfingers 7.12502
lthumb 19.045 21.7947
rfemur -46.8226 2.01314 22.5979
rtibia 62.6071
rfoot -13.424 -8.6927
rtoes -12.8373
lfemur -47.2947 -2.24859 -18.7177
ltibia 66.4922
lfoot -16.2784 3.04331
ltoes -12.9089
5
root 25.079 16.6387 1.02707 -12.1487 88.3806 -378.522
lowerback 39.0031 -2.5343 3.66487
upperback 10.0478 -0.60704 -1.75769
thorax -7.90666 0.299106 -3.61447
lowerneck 3.13077 1.0746 -5.93008
upperneck 2.66407 1.34916 -1.80294
head 0.274236 0.646625 0.410119
rclavicle -1.50082e-014 -1.53561e-014
rhumerus -115.317 -45.2935 29.005
rradius 7.65671
rwrist 118.267
rhand -14.1231 7.6868
rfingers 7.12502
rthumb 12.0104 -21.9486
lclavicle -1.50082e-014 -1.53561e-014
lhumerus -115.952 45.1395 -38.9811
lradius 11.7409
lwrist -127.937
lhand -7.41401 -6.75336
lfingers 7.12502
lthumb 18.4726 22.3895
rfemur -46.2512 2.15121 22.568
rtibia 60.9671
rfoot -12.6435 -9.05601
rtoes -12.559
lfemur -46.9322 -2.28905 -18.5588
ltibia 64.9907
lfoot -15.1881 2.83173
ltoes -13.1788
6
root 25.1552 16.7857 1.0439 -17.7182 88.6184 -384.771
lowerback 38.01 -2.56083 3.74278
upperback 10.237 -0.655131 -1.68239
thorax -7.37285 0.281492 -3.5561
lowerneck 2.97178 1.07092 -5.97864
upperneck 3.55429 1.39514 -1.77257
head 0.571559 0.647714 0.432427
rclavicle -6.85807e-015 -7.05686e-015
rhumerus -124.615 -37.6762 44.1739
rradius 8.77352
rwrist 134.169
rhand -13.5684 8.20689
rfingers 7.12502
rthumb 12.5452 -21.3965
lclavicle -6.85807e-015 -7.05686e-015
lhumerus -120.318 40.8273 -46.8898
lradius 12.1929
lwrist -134.841
lhand -8.10454 -6.36113
lfingers 7.12502
lthumb 17.8083 22.8435
rfemur -45.7021 2.12565 22.5734
rtibia 59.3175
rfoot -11.8234 -9.28361
rtoes -12.1823
lfemur -46.6089 -2.2632 -18.4169
ltibia 63.5297
lfoot -14.0914 2.52518
ltoes -13.2609
7
root 25.2304 16.9255 1.06063 -24.9041 88.829 -392.619
lowerback 36.8534 -2.565 3.77411
upperback 10.4395 -0.704093 -1.5874
thorax -6.76072 0.262511 -3.45473
lowerneck 3.10076 1.09081 -6.08281
upperneck 4.07989 1.43432 -1.69884
head 0.710729 0.656035 0.47433
rclavicle -1.20265e-014 -7.70291e-015
rhumerus -130.362 -28.8233 56.5818
rradius 10.0978
rwrist 150.288
rhand -13.4447 9.09244
rfingers 7.12502
rthumb 12.6645 -20.5036
lclavicle -1.20265e-014 -7.70291e-015
lhumerus -122.828 36.9653 -52.5856
lradius 12.7435
lwrist -140.584
lhand -8.35369 -6.01173
lfingers 7.12502
lthumb 17.5685 23.2145
rfemur -45.1131 2.01634 22.576
rtibia 57.564
rfoot -10.9295 -9.44664
rtoes -11.7664
lfemur -46.2531 -2.17147 -18.295
ltibia 61.9949
lfoot -12.9916 2.20276
ltoes -13.3495
8
root 25.3041 17.0585 1.07798 -36.0248 89.0126 -404.374
lowerback 35.6854 -2.56542 3.81208
upperback 10.5837 -0.754695 -1.48202
thorax -6.19846 0.237573 -3.34819
lowerneck 3.49607 1.1296 -6.2104
upperneck 4.32029 1.46538 -1.60409
head 0.718246 0.669018 0.523027
rclavicle -4.96962e-016 2.18663e-015
rhumerus -130.67 -24.9503 60.3805
rradius 11.1285
rwrist 157.895
rhand -12.3478 9.89593
rfingers 7.12502
rthumb 13.7218 -19.6316
lclavicle -4.96962e-016 2.18663e-015
lhumerus -123.465 33.9776 -55.8034
lradius 13.2548
lwrist -144.555
lhand -8.18943 -5.83897
lfingers 7.12502
lthumb 17.7266 23.373
rfemur -44.5171 1.87995 22.5964
rtibia 55.8225
rfoot -10.0217 -9.56987
rtoes -11.2111
lfemur -45.906 -2.0584 -18.1659
ltibia 60.5003
lfoot -11.8898 1.84578
ltoes -13.4824
